<mxfile host="app.diagrams.net" modified="2022-04-23T12:21:54.147Z" agent="5.0 (Windows NT 10.0; Win64; x64) AppleWebKit/537.36 (KHTML, like Gecko) Chrome/98.0.4758.141 YaBrowser/22.3.3.852 Yowser/2.5 Safari/537.36" etag="VdziQD-mfqAm5qE2sT6K" version="17.4.6" type="github">
  <diagram id="6a731a19-8d31-9384-78a2-239565b7b9f0" name="Page-1">
    <mxGraphModel dx="1038" dy="575" grid="1" gridSize="10" guides="1" tooltips="1" connect="1" arrows="1" fold="1" page="1" pageScale="1" pageWidth="1169" pageHeight="827" background="none" math="0" shadow="0">
      <root>
        <mxCell id="0" />
        <mxCell id="1" parent="0" />
        <mxCell id="fNKRdAlGoKbugYuYfjse-65" style="edgeStyle=orthogonalEdgeStyle;rounded=0;orthogonalLoop=1;jettySize=auto;html=1;exitX=0.5;exitY=1;exitDx=0;exitDy=0;entryX=0.5;entryY=0;entryDx=0;entryDy=0;" edge="1" parent="1" source="fNKRdAlGoKbugYuYfjse-55" target="fNKRdAlGoKbugYuYfjse-56">
          <mxGeometry relative="1" as="geometry" />
        </mxCell>
        <mxCell id="fNKRdAlGoKbugYuYfjse-55" value="НАЧАЛО" style="rounded=1;whiteSpace=wrap;html=1;" vertex="1" parent="1">
          <mxGeometry x="480" y="40" width="120" height="60" as="geometry" />
        </mxCell>
        <mxCell id="fNKRdAlGoKbugYuYfjse-66" style="edgeStyle=orthogonalEdgeStyle;rounded=0;orthogonalLoop=1;jettySize=auto;html=1;exitX=0.5;exitY=1;exitDx=0;exitDy=0;entryX=0.5;entryY=0;entryDx=0;entryDy=0;" edge="1" parent="1" source="fNKRdAlGoKbugYuYfjse-56" target="fNKRdAlGoKbugYuYfjse-57">
          <mxGeometry relative="1" as="geometry" />
        </mxCell>
        <mxCell id="fNKRdAlGoKbugYuYfjse-56" value="arr[]" style="shape=parallelogram;perimeter=parallelogramPerimeter;whiteSpace=wrap;html=1;fixedSize=1;" vertex="1" parent="1">
          <mxGeometry x="480" y="130" width="120" height="60" as="geometry" />
        </mxCell>
        <mxCell id="fNKRdAlGoKbugYuYfjse-67" style="edgeStyle=orthogonalEdgeStyle;rounded=0;orthogonalLoop=1;jettySize=auto;html=1;exitX=1;exitY=0.5;exitDx=0;exitDy=0;entryX=0;entryY=0.5;entryDx=0;entryDy=0;" edge="1" parent="1" source="fNKRdAlGoKbugYuYfjse-57" target="fNKRdAlGoKbugYuYfjse-58">
          <mxGeometry relative="1" as="geometry" />
        </mxCell>
        <mxCell id="fNKRdAlGoKbugYuYfjse-68" style="edgeStyle=orthogonalEdgeStyle;rounded=0;orthogonalLoop=1;jettySize=auto;html=1;exitX=0.5;exitY=1;exitDx=0;exitDy=0;entryX=0.5;entryY=0;entryDx=0;entryDy=0;" edge="1" parent="1" source="fNKRdAlGoKbugYuYfjse-57" target="fNKRdAlGoKbugYuYfjse-59">
          <mxGeometry relative="1" as="geometry" />
        </mxCell>
        <mxCell id="fNKRdAlGoKbugYuYfjse-57" value="arr.length == 0" style="rhombus;whiteSpace=wrap;html=1;" vertex="1" parent="1">
          <mxGeometry x="480" y="220" width="120" height="80" as="geometry" />
        </mxCell>
        <mxCell id="fNKRdAlGoKbugYuYfjse-93" style="edgeStyle=orthogonalEdgeStyle;rounded=0;orthogonalLoop=1;jettySize=auto;html=1;entryX=0.5;entryY=0;entryDx=0;entryDy=0;" edge="1" parent="1" source="fNKRdAlGoKbugYuYfjse-58" target="fNKRdAlGoKbugYuYfjse-91">
          <mxGeometry relative="1" as="geometry">
            <Array as="points">
              <mxPoint x="960" y="1360" />
              <mxPoint x="540" y="1360" />
            </Array>
          </mxGeometry>
        </mxCell>
        <mxCell id="fNKRdAlGoKbugYuYfjse-58" value="массив пуст" style="shape=document;whiteSpace=wrap;html=1;boundedLbl=1;" vertex="1" parent="1">
          <mxGeometry x="890" y="220" width="120" height="80" as="geometry" />
        </mxCell>
        <mxCell id="fNKRdAlGoKbugYuYfjse-69" style="edgeStyle=orthogonalEdgeStyle;rounded=0;orthogonalLoop=1;jettySize=auto;html=1;exitX=0.5;exitY=1;exitDx=0;exitDy=0;entryX=0.5;entryY=0;entryDx=0;entryDy=0;" edge="1" parent="1" source="fNKRdAlGoKbugYuYfjse-59" target="fNKRdAlGoKbugYuYfjse-60">
          <mxGeometry relative="1" as="geometry" />
        </mxCell>
        <mxCell id="fNKRdAlGoKbugYuYfjse-59" value="minPos = maxPos = 0&lt;br&gt;startPos, endPos&lt;br&gt;sum = 0" style="shape=parallelogram;perimeter=parallelogramPerimeter;whiteSpace=wrap;html=1;fixedSize=1;" vertex="1" parent="1">
          <mxGeometry x="460" y="320" width="160" height="60" as="geometry" />
        </mxCell>
        <mxCell id="fNKRdAlGoKbugYuYfjse-70" value="ДА" style="edgeStyle=orthogonalEdgeStyle;rounded=0;orthogonalLoop=1;jettySize=auto;html=1;exitX=0.5;exitY=1;exitDx=0;exitDy=0;entryX=0.5;entryY=0;entryDx=0;entryDy=0;" edge="1" parent="1" source="fNKRdAlGoKbugYuYfjse-60" target="fNKRdAlGoKbugYuYfjse-61">
          <mxGeometry relative="1" as="geometry" />
        </mxCell>
        <mxCell id="fNKRdAlGoKbugYuYfjse-78" value="НЕТ" style="edgeStyle=orthogonalEdgeStyle;rounded=0;orthogonalLoop=1;jettySize=auto;html=1;exitX=1;exitY=0.5;exitDx=0;exitDy=0;entryX=0.5;entryY=0;entryDx=0;entryDy=0;" edge="1" parent="1" source="fNKRdAlGoKbugYuYfjse-60" target="fNKRdAlGoKbugYuYfjse-77">
          <mxGeometry x="-0.9027" relative="1" as="geometry">
            <Array as="points">
              <mxPoint x="890" y="442" />
              <mxPoint x="890" y="820" />
              <mxPoint x="540" y="820" />
            </Array>
            <mxPoint as="offset" />
          </mxGeometry>
        </mxCell>
        <mxCell id="fNKRdAlGoKbugYuYfjse-60" value="i = 1; i &amp;lt; arr.length; i++" style="shape=hexagon;perimeter=hexagonPerimeter2;whiteSpace=wrap;html=1;fixedSize=1;" vertex="1" parent="1">
          <mxGeometry x="460" y="414" width="160" height="56" as="geometry" />
        </mxCell>
        <mxCell id="fNKRdAlGoKbugYuYfjse-71" value="ДА" style="edgeStyle=orthogonalEdgeStyle;rounded=0;orthogonalLoop=1;jettySize=auto;html=1;exitX=0.5;exitY=1;exitDx=0;exitDy=0;entryX=0.5;entryY=0;entryDx=0;entryDy=0;" edge="1" parent="1" source="fNKRdAlGoKbugYuYfjse-61" target="fNKRdAlGoKbugYuYfjse-62">
          <mxGeometry relative="1" as="geometry" />
        </mxCell>
        <mxCell id="fNKRdAlGoKbugYuYfjse-72" value="НЕТ" style="edgeStyle=orthogonalEdgeStyle;rounded=0;orthogonalLoop=1;jettySize=auto;html=1;exitX=1;exitY=0.5;exitDx=0;exitDy=0;entryX=0.5;entryY=0;entryDx=0;entryDy=0;" edge="1" parent="1" source="fNKRdAlGoKbugYuYfjse-61" target="fNKRdAlGoKbugYuYfjse-63">
          <mxGeometry relative="1" as="geometry" />
        </mxCell>
        <mxCell id="fNKRdAlGoKbugYuYfjse-61" value="arr[minPos] &amp;gt; arr[i]" style="rhombus;whiteSpace=wrap;html=1;" vertex="1" parent="1">
          <mxGeometry x="475" y="500" width="130" height="80" as="geometry" />
        </mxCell>
        <mxCell id="fNKRdAlGoKbugYuYfjse-73" style="edgeStyle=orthogonalEdgeStyle;rounded=0;orthogonalLoop=1;jettySize=auto;html=1;exitX=0.5;exitY=1;exitDx=0;exitDy=0;entryX=0;entryY=0.5;entryDx=0;entryDy=0;" edge="1" parent="1" source="fNKRdAlGoKbugYuYfjse-62" target="fNKRdAlGoKbugYuYfjse-60">
          <mxGeometry relative="1" as="geometry">
            <Array as="points">
              <mxPoint x="540" y="700" />
              <mxPoint x="420" y="700" />
              <mxPoint x="420" y="442" />
            </Array>
          </mxGeometry>
        </mxCell>
        <mxCell id="fNKRdAlGoKbugYuYfjse-62" value="minPos = i;" style="rounded=0;whiteSpace=wrap;html=1;" vertex="1" parent="1">
          <mxGeometry x="480" y="610" width="120" height="60" as="geometry" />
        </mxCell>
        <mxCell id="fNKRdAlGoKbugYuYfjse-74" value="ДА" style="edgeStyle=orthogonalEdgeStyle;rounded=0;orthogonalLoop=1;jettySize=auto;html=1;exitX=0.5;exitY=1;exitDx=0;exitDy=0;entryX=0.5;entryY=0;entryDx=0;entryDy=0;" edge="1" parent="1" source="fNKRdAlGoKbugYuYfjse-63" target="fNKRdAlGoKbugYuYfjse-64">
          <mxGeometry relative="1" as="geometry" />
        </mxCell>
        <mxCell id="fNKRdAlGoKbugYuYfjse-76" value="НЕТ" style="edgeStyle=orthogonalEdgeStyle;rounded=0;orthogonalLoop=1;jettySize=auto;html=1;exitX=1;exitY=0.5;exitDx=0;exitDy=0;entryX=0;entryY=0.5;entryDx=0;entryDy=0;" edge="1" parent="1" source="fNKRdAlGoKbugYuYfjse-63" target="fNKRdAlGoKbugYuYfjse-60">
          <mxGeometry x="-0.9244" relative="1" as="geometry">
            <Array as="points">
              <mxPoint x="830" y="640" />
              <mxPoint x="830" y="800" />
              <mxPoint x="420" y="800" />
              <mxPoint x="420" y="442" />
            </Array>
            <mxPoint as="offset" />
          </mxGeometry>
        </mxCell>
        <mxCell id="fNKRdAlGoKbugYuYfjse-63" value="arr[maxPos] &amp;lt; arr[i]" style="rhombus;whiteSpace=wrap;html=1;" vertex="1" parent="1">
          <mxGeometry x="641" y="600" width="140" height="80" as="geometry" />
        </mxCell>
        <mxCell id="fNKRdAlGoKbugYuYfjse-75" style="edgeStyle=orthogonalEdgeStyle;rounded=0;orthogonalLoop=1;jettySize=auto;html=1;exitX=0.5;exitY=1;exitDx=0;exitDy=0;entryX=0;entryY=0.5;entryDx=0;entryDy=0;" edge="1" parent="1" source="fNKRdAlGoKbugYuYfjse-64" target="fNKRdAlGoKbugYuYfjse-60">
          <mxGeometry relative="1" as="geometry">
            <Array as="points">
              <mxPoint x="711" y="800" />
              <mxPoint x="420" y="800" />
              <mxPoint x="420" y="442" />
            </Array>
          </mxGeometry>
        </mxCell>
        <mxCell id="fNKRdAlGoKbugYuYfjse-64" value="maxPos = i;" style="rounded=0;whiteSpace=wrap;html=1;" vertex="1" parent="1">
          <mxGeometry x="651" y="720" width="120" height="60" as="geometry" />
        </mxCell>
        <mxCell id="fNKRdAlGoKbugYuYfjse-81" value="ДА" style="edgeStyle=orthogonalEdgeStyle;rounded=0;orthogonalLoop=1;jettySize=auto;html=1;" edge="1" parent="1" source="fNKRdAlGoKbugYuYfjse-77" target="fNKRdAlGoKbugYuYfjse-79">
          <mxGeometry relative="1" as="geometry" />
        </mxCell>
        <mxCell id="fNKRdAlGoKbugYuYfjse-82" value="НЕТ" style="edgeStyle=orthogonalEdgeStyle;rounded=0;orthogonalLoop=1;jettySize=auto;html=1;" edge="1" parent="1" source="fNKRdAlGoKbugYuYfjse-77" target="fNKRdAlGoKbugYuYfjse-80">
          <mxGeometry relative="1" as="geometry" />
        </mxCell>
        <mxCell id="fNKRdAlGoKbugYuYfjse-77" value="minPos &amp;lt; maxPos" style="rhombus;whiteSpace=wrap;html=1;" vertex="1" parent="1">
          <mxGeometry x="470" y="850" width="140" height="80" as="geometry" />
        </mxCell>
        <mxCell id="fNKRdAlGoKbugYuYfjse-84" style="edgeStyle=orthogonalEdgeStyle;rounded=0;orthogonalLoop=1;jettySize=auto;html=1;entryX=0.5;entryY=0;entryDx=0;entryDy=0;exitX=0.5;exitY=1;exitDx=0;exitDy=0;" edge="1" parent="1" source="fNKRdAlGoKbugYuYfjse-79" target="fNKRdAlGoKbugYuYfjse-83">
          <mxGeometry relative="1" as="geometry">
            <Array as="points">
              <mxPoint x="360" y="1020" />
              <mxPoint x="540" y="1020" />
            </Array>
          </mxGeometry>
        </mxCell>
        <mxCell id="fNKRdAlGoKbugYuYfjse-79" value="startPos = minPos&lt;br&gt;endPos = maxPos" style="rounded=0;whiteSpace=wrap;html=1;" vertex="1" parent="1">
          <mxGeometry x="300" y="931" width="120" height="60" as="geometry" />
        </mxCell>
        <mxCell id="fNKRdAlGoKbugYuYfjse-85" style="edgeStyle=orthogonalEdgeStyle;rounded=0;orthogonalLoop=1;jettySize=auto;html=1;entryX=0.5;entryY=0;entryDx=0;entryDy=0;" edge="1" parent="1" source="fNKRdAlGoKbugYuYfjse-80" target="fNKRdAlGoKbugYuYfjse-83">
          <mxGeometry relative="1" as="geometry">
            <Array as="points">
              <mxPoint x="720" y="1020" />
              <mxPoint x="540" y="1020" />
            </Array>
          </mxGeometry>
        </mxCell>
        <mxCell id="fNKRdAlGoKbugYuYfjse-80" value="startPos = maxPos&lt;br&gt;endPos = minPos" style="rounded=0;whiteSpace=wrap;html=1;" vertex="1" parent="1">
          <mxGeometry x="660" y="931" width="120" height="60" as="geometry" />
        </mxCell>
        <mxCell id="fNKRdAlGoKbugYuYfjse-88" value="ДА" style="edgeStyle=orthogonalEdgeStyle;rounded=0;orthogonalLoop=1;jettySize=auto;html=1;exitX=0.5;exitY=1;exitDx=0;exitDy=0;entryX=0.5;entryY=0;entryDx=0;entryDy=0;" edge="1" parent="1" source="fNKRdAlGoKbugYuYfjse-83" target="fNKRdAlGoKbugYuYfjse-86">
          <mxGeometry relative="1" as="geometry" />
        </mxCell>
        <mxCell id="fNKRdAlGoKbugYuYfjse-90" value="НЕТ" style="edgeStyle=orthogonalEdgeStyle;rounded=0;orthogonalLoop=1;jettySize=auto;html=1;exitX=1;exitY=0.5;exitDx=0;exitDy=0;" edge="1" parent="1" source="fNKRdAlGoKbugYuYfjse-83" target="fNKRdAlGoKbugYuYfjse-89">
          <mxGeometry x="-0.7284" relative="1" as="geometry">
            <Array as="points">
              <mxPoint x="625" y="1070" />
              <mxPoint x="660" y="1070" />
              <mxPoint x="660" y="1240" />
              <mxPoint x="540" y="1240" />
            </Array>
            <mxPoint as="offset" />
          </mxGeometry>
        </mxCell>
        <mxCell id="fNKRdAlGoKbugYuYfjse-83" value="i=startPos+1; i &amp;lt; endPos; i++" style="shape=hexagon;perimeter=hexagonPerimeter2;whiteSpace=wrap;html=1;fixedSize=1;" vertex="1" parent="1">
          <mxGeometry x="455" y="1041" width="170" height="60" as="geometry" />
        </mxCell>
        <mxCell id="fNKRdAlGoKbugYuYfjse-87" style="edgeStyle=orthogonalEdgeStyle;rounded=0;orthogonalLoop=1;jettySize=auto;html=1;exitX=0.5;exitY=1;exitDx=0;exitDy=0;entryX=0;entryY=0.5;entryDx=0;entryDy=0;" edge="1" parent="1" source="fNKRdAlGoKbugYuYfjse-86" target="fNKRdAlGoKbugYuYfjse-83">
          <mxGeometry relative="1" as="geometry">
            <mxPoint x="410" y="1170" as="targetPoint" />
            <Array as="points">
              <mxPoint x="540" y="1220" />
              <mxPoint x="420" y="1220" />
              <mxPoint x="420" y="1070" />
            </Array>
          </mxGeometry>
        </mxCell>
        <mxCell id="fNKRdAlGoKbugYuYfjse-86" value="sum += arr[ i ]" style="rounded=0;whiteSpace=wrap;html=1;" vertex="1" parent="1">
          <mxGeometry x="480" y="1141" width="120" height="60" as="geometry" />
        </mxCell>
        <mxCell id="fNKRdAlGoKbugYuYfjse-92" style="edgeStyle=orthogonalEdgeStyle;rounded=0;orthogonalLoop=1;jettySize=auto;html=1;" edge="1" parent="1" source="fNKRdAlGoKbugYuYfjse-89" target="fNKRdAlGoKbugYuYfjse-91">
          <mxGeometry relative="1" as="geometry" />
        </mxCell>
        <mxCell id="fNKRdAlGoKbugYuYfjse-89" value="sum" style="shape=document;whiteSpace=wrap;html=1;boundedLbl=1;" vertex="1" parent="1">
          <mxGeometry x="480" y="1262" width="120" height="80" as="geometry" />
        </mxCell>
        <mxCell id="fNKRdAlGoKbugYuYfjse-91" value="КОНЕЦ" style="rounded=1;whiteSpace=wrap;html=1;" vertex="1" parent="1">
          <mxGeometry x="480" y="1382" width="120" height="60" as="geometry" />
        </mxCell>
      </root>
    </mxGraphModel>
  </diagram>
</mxfile>
